<?xml version="1.0" encoding="UTF-8" standalone="no"?>
<!-- Generator: Adobe Illustrator 19.0.0, SVG Export Plug-In . SVG Version: 6.00 Build 0)  -->

<svg
   xmlns:dc="http://purl.org/dc/elements/1.1/"
   xmlns:cc="http://creativecommons.org/ns#"
   xmlns:rdf="http://www.w3.org/1999/02/22-rdf-syntax-ns#"
   xmlns:svg="http://www.w3.org/2000/svg"
   xmlns="http://www.w3.org/2000/svg"
   xmlns:sodipodi="http://sodipodi.sourceforge.net/DTD/sodipodi-0.dtd"
   xmlns:inkscape="http://www.inkscape.org/namespaces/inkscape"
   version="1.1"
   id="Layer_1"
   x="0px"
   y="0px"
   viewBox="0 0 128 128"
   xml:space="preserve"
   sodipodi:docname="logo.svg"
   inkscape:version="0.92.3 (unknown)"
   inkscape:export-filename="/home/radoslav/Work-Github/toggle-streetview-coverage/extension/img/icon_128.png"
   inkscape:export-xdpi="96"
   inkscape:export-ydpi="96"
   width="128"
   height="128"><metadata
   id="metadata11"><rdf:RDF><cc:Work
       rdf:about=""><dc:format>image/svg+xml</dc:format><dc:type
         rdf:resource="http://purl.org/dc/dcmitype/StillImage" /><dc:title></dc:title></cc:Work></rdf:RDF></metadata><defs
   id="defs9" /><sodipodi:namedview
   pagecolor="#ffffff"
   bordercolor="#666666"
   borderopacity="1"
   objecttolerance="10"
   gridtolerance="10"
   guidetolerance="10"
   inkscape:pageopacity="0"
   inkscape:pageshadow="2"
   inkscape:window-width="1920"
   inkscape:window-height="1017"
   id="namedview7"
   showgrid="false"
   inkscape:zoom="3.4766084"
   inkscape:cx="80.103208"
   inkscape:cy="25.538691"
   inkscape:window-x="0"
   inkscape:window-y="30"
   inkscape:window-maximized="1"
   inkscape:current-layer="Layer_1" />
<style
   type="text/css"
   id="style2">
	.st0{fill:#333333;}
</style>
<g
   id="XMLID_2_"
   style="fill:#00aad4;fill-opacity:1"
   transform="matrix(1.6,0,0,1.6,-12.8,-12.8)">
	<path
   style="fill:#ececec;fill-opacity:1"
   inkscape:connector-curvature="0"
   d="m 72.359546,69.659546 c 0,1.4 -0.7,2.7 -2.1,3.9 -1.4,1.2 -3.3,2.1 -5.6,2.8 -2.3,0.7 -4.9,1.2 -7.7,1.6 -2.7,0.2 -5.6,0.4 -8.6,0.4 -3,0 -5.9,-0.2 -8.6,-0.5 -2.8,-0.4 -5.3,-0.9 -7.7,-1.6 -2.4,-0.7 -4.2,-1.6 -5.6,-2.8 -1.4,-1.1 -2.1,-2.4 -2.1,-3.8 0,-1.1 0.4,-2.1 1.1,-3 0.7,-0.9 1.8,-1.7 3.1,-2.3 1.3,-0.6 2.7,-1.1 4,-1.5 1.4,-0.4 2.9,-0.7 4.5,-1 0.6,-0.1 1.1,0 1.6,0.4 0.5,0.4 0.8,0.8 0.9,1.4 0.1,0.6 0,1.1 -0.4,1.6 -0.4,0.5 -0.8,0.8 -1.4,0.9 -1.3,0.2 -2.5,0.5 -3.6,0.8 -1.1,0.3 -2,0.6 -2.6,0.9 -0.6,0.3 -1.2,0.5 -1.6,0.7 -0.5,0.3 -0.8,0.5 -0.9,0.7 -0.2,0.2 -0.3,0.3 -0.3,0.4 0.1,0.3 0.4,0.6 0.9,0.9 0.5,0.4 1.4,0.7 2.5,1.1 1.1,0.4 2.4,0.8 3.9,1.1 1.5,0.3 3.3,0.6 5.5,0.9 2.2,0.2 4.5,0.3 6.9,0.3 2.4,0 4.7,-0.1 6.9,-0.3 2.2,-0.2 4,-0.5 5.5,-0.9 1.5,-0.3 2.8,-0.7 3.9,-1.1 1.1,-0.4 1.9,-0.8 2.5,-1.1 0.5,-0.4 0.9,-0.7 0.9,-0.9 0,-0.1 -0.1,-0.2 -0.3,-0.4 -0.2,-0.2 -0.5,-0.4 -0.9,-0.6 -0.5,-0.3 -1,-0.5 -1.7,-0.8 -0.7,-0.3 -1.5,-0.5 -2.6,-0.9 -1.1,-0.4 -2.3,-0.6 -3.6,-0.8 -0.6,-0.1 -1.1,-0.4 -1.4,-0.9 -0.4,-0.5 -0.5,-1 -0.4,-1.6 0.1,-0.6 0.4,-1.1 0.9,-1.4 0.5,-0.4 1,-0.5 1.6,-0.4 1.6,0.3 3.1,0.6 4.5,1 1.4,0.4 2.7,0.9 4,1.5 1.3,0.6 2.4,1.4 3.1,2.3 0.7,0.9 1,1.9 1,3 z m -13.1,-30.6 v 13.1 c 0,0.6 -0.2,1.1 -0.6,1.5 -0.4,0.4 -1,0.7 -1.6,0.7 h -2.2 v 13.1 c 0,0.6 -0.2,1.1 -0.6,1.5 -0.4,0.4 -0.9,0.6 -1.5,0.6 h -8.7 c -0.6,0 -1.1,-0.2 -1.5,-0.6 -0.4,-0.4 -0.6,-0.9 -0.6,-1.5 v -13.1 h -2.2 c -0.6,0 -1.1,-0.2 -1.5,-0.6 -0.4,-0.4 -0.6,-0.9 -0.6,-1.5 v -13.2 c 0,-1.2 0.4,-2.2 1.3,-3.1 0.9,-0.9 1.9,-1.3 3.1,-1.3 h 13.1 c 1.2,0 2.2,0.4 3.1,1.3 0.6,0.9 1,1.9 1,3.1 z m -3.3,-13.1 c 0,2.1 -0.7,3.9 -2.2,5.4 -1.5,1.5 -3.3,2.2 -5.4,2.2 -2.1,0 -3.9,-0.7 -5.4,-2.2 -1.5,-1.5 -2.2,-3.3 -2.2,-5.4 0,-2.1 0.7,-3.9 2.2,-5.4 1.5,-1.5 3.3,-2.2 5.4,-2.2 2.1,0 3.9,0.7 5.4,2.2 1.5,1.5 2.2,3.3 2.2,5.4 z"
   class="st0"
   id="path836" /><path
   id="XMLID_7_"
   class="st0"
   d="m 71.820227,69.120227 c 0,1.4 -0.7,2.7 -2.1,3.9 -1.4,1.2 -3.3,2.1 -5.6,2.8 -2.3,0.7 -4.9,1.2 -7.7,1.6 -2.7,0.2 -5.6,0.4 -8.6,0.4 -3,0 -5.9,-0.2 -8.6,-0.5 -2.8,-0.4 -5.3,-0.9 -7.7,-1.6 -2.4,-0.7 -4.2,-1.6 -5.6,-2.8 -1.4,-1.1 -2.1,-2.4 -2.1,-3.8 0,-1.1 0.4,-2.1 1.1,-3 0.7,-0.9 1.8,-1.7 3.1,-2.3 1.3,-0.6 2.7,-1.1 4,-1.5 1.4,-0.4 2.9,-0.7 4.5,-1 0.6,-0.1 1.1,0 1.6,0.4 0.5,0.4 0.8,0.8 0.9,1.4 0.1,0.6 0,1.1 -0.4,1.6 -0.4,0.5 -0.8,0.8 -1.4,0.9 -1.3,0.2 -2.5,0.5 -3.6,0.8 -1.1,0.3 -2,0.6 -2.6,0.9 -0.6,0.3 -1.2,0.5 -1.6,0.7 -0.5,0.3 -0.8,0.5 -0.9,0.7 -0.2,0.2 -0.3,0.3 -0.3,0.4 0.1,0.3 0.4,0.6 0.9,0.9 0.5,0.4 1.4,0.7 2.5,1.1 1.1,0.4 2.4,0.8 3.9,1.1 1.5,0.3 3.3,0.6 5.5,0.9 2.2,0.2 4.5,0.3 6.9,0.3 2.4,0 4.7,-0.1 6.9,-0.3 2.2,-0.2 4,-0.5 5.5,-0.9 1.5,-0.3 2.8,-0.7 3.9,-1.1 1.1,-0.4 1.9,-0.8 2.5,-1.1 0.5,-0.4 0.9,-0.7 0.9,-0.9 0,-0.1 -0.1,-0.2 -0.3,-0.4 -0.2,-0.2 -0.5,-0.4 -0.9,-0.6 -0.5,-0.3 -1,-0.5 -1.7,-0.8 -0.7,-0.3 -1.5,-0.5 -2.6,-0.9 -1.1,-0.4 -2.3,-0.6 -3.6,-0.8 -0.6,-0.1 -1.1,-0.4 -1.4,-0.9 -0.4,-0.5 -0.5,-1 -0.4,-1.6 0.1,-0.6 0.4,-1.1 0.9,-1.4 0.5,-0.4 1,-0.5 1.6,-0.4 1.6,0.3 3.1,0.6 4.5,1 1.4,0.4 2.7,0.9 4,1.5 1.3,0.6 2.4,1.4 3.1,2.3 0.7,0.9 1,1.9 1,3 z m -13.1,-30.6 v 13.1 c 0,0.6 -0.2,1.1 -0.6,1.5 -0.4,0.4 -1,0.7 -1.6,0.7 h -2.2 v 13.1 c 0,0.6 -0.2,1.1 -0.6,1.5 -0.4,0.4 -0.9,0.6 -1.5,0.6 h -8.7 c -0.6,0 -1.1,-0.2 -1.5,-0.6 -0.4,-0.4 -0.6,-0.9 -0.6,-1.5 v -13.1 h -2.2 c -0.6,0 -1.1,-0.2 -1.5,-0.6 -0.4,-0.4 -0.6,-0.9 -0.6,-1.5 v -13.2 c 0,-1.2 0.4,-2.2 1.3,-3.1 0.9,-0.9 1.9,-1.3 3.1,-1.3 h 13.1 c 1.2,0 2.2,0.4 3.1,1.3 0.6,0.9 1,1.9 1,3.1 z m -3.3,-13.1 c 0,2.1 -0.7,3.9 -2.2,5.4 -1.5,1.5 -3.3,2.2 -5.4,2.2 -2.1,0 -3.9,-0.7 -5.4,-2.2 -1.5,-1.5 -2.2,-3.3 -2.2,-5.4 0,-2.1 0.7,-3.9 2.2,-5.4 1.5,-1.5 3.3,-2.2 5.4,-2.2 2.1,0 3.9,0.7 5.4,2.2 1.5,1.5 2.2,3.3 2.2,5.4 z"
   inkscape:connector-curvature="0"
   style="fill:#00aad4;fill-opacity:1" />
</g>
</svg>