<?xml version="1.0" encoding="UTF-8" standalone="no"?>
<!-- Generator: Adobe Illustrator 19.0.0, SVG Export Plug-In . SVG Version: 6.00 Build 0)  -->

<svg
   xmlns:dc="http://purl.org/dc/elements/1.1/"
   xmlns:cc="http://creativecommons.org/ns#"
   xmlns:rdf="http://www.w3.org/1999/02/22-rdf-syntax-ns#"
   xmlns:svg="http://www.w3.org/2000/svg"
   xmlns="http://www.w3.org/2000/svg"
   xmlns:xlink="http://www.w3.org/1999/xlink"
   xmlns:sodipodi="http://sodipodi.sourceforge.net/DTD/sodipodi-0.dtd"
   xmlns:inkscape="http://www.inkscape.org/namespaces/inkscape"
   version="1.1"
   id="Layer_1"
   x="0px"
   y="0px"
   viewBox="0 0 96 96"
   style="enable-background:new 0 0 96 96;"
   xml:space="preserve"
   sodipodi:docname="logo.svg"
   inkscape:version="0.92.3 (unknown)"
   inkscape:export-filename="/home/radoslav/Work/chrome-extensions/streetview-toggle/extension/img/icon_128.png"
   inkscape:export-xdpi="128"
   inkscape:export-ydpi="128"><metadata
   id="metadata11"><rdf:RDF><cc:Work
       rdf:about=""><dc:format>image/svg+xml</dc:format><dc:type
         rdf:resource="http://purl.org/dc/dcmitype/StillImage" /></cc:Work></rdf:RDF></metadata><defs
   id="defs9"><linearGradient
     inkscape:collect="always"
     id="linearGradient822"><stop
       style="stop-color:#006680;stop-opacity:1;"
       offset="0"
       id="stop818" /><stop
       style="stop-color:#006680;stop-opacity:0;"
       offset="1"
       id="stop820" /></linearGradient><linearGradient
     inkscape:collect="always"
     xlink:href="#linearGradient822"
     id="linearGradient824"
     x1="20.278385"
     y1="22.652653"
     x2="119.65685"
     y2="59.038689"
     gradientUnits="userSpaceOnUse" /><linearGradient
     inkscape:collect="always"
     xlink:href="#linearGradient822"
     id="linearGradient826"
     gradientUnits="userSpaceOnUse"
     x1="20.278385"
     y1="22.652653"
     x2="119.65685"
     y2="59.038689" /></defs><sodipodi:namedview
   pagecolor="#ffffff"
   bordercolor="#666666"
   borderopacity="1"
   objecttolerance="10"
   gridtolerance="10"
   guidetolerance="10"
   inkscape:pageopacity="0"
   inkscape:pageshadow="2"
   inkscape:window-width="1920"
   inkscape:window-height="1017"
   id="namedview7"
   showgrid="false"
   inkscape:zoom="6.9532167"
   inkscape:cx="18.629361"
   inkscape:cy="46.34748"
   inkscape:window-x="0"
   inkscape:window-y="30"
   inkscape:window-maximized="1"
   inkscape:current-layer="Layer_1" />
<style
   type="text/css"
   id="style2">
	.st0{fill:#333333;}
</style>
<g
   id="XMLID_2_"
   style="fill:url(#linearGradient824);fill-opacity:1"
   transform="matrix(1.4793944,0,0,1.4793944,-23.010933,-23.010933)">
	<path
   id="XMLID_7_"
   class="st0"
   d="m 72,69.3 c 0,1.4 -0.7,2.7 -2.1,3.9 -1.4,1.2 -3.3,2.1 -5.6,2.8 -2.3,0.7 -4.9,1.2 -7.7,1.6 C 53.9,77.8 51,78 48,78 45,78 42.1,77.8 39.4,77.5 36.6,77.1 34.1,76.6 31.7,75.9 29.3,75.2 27.5,74.3 26.1,73.1 24.7,72 24,70.7 24,69.3 c 0,-1.1 0.4,-2.1 1.1,-3 0.7,-0.9 1.8,-1.7 3.1,-2.3 1.3,-0.6 2.7,-1.1 4,-1.5 1.4,-0.4 2.9,-0.7 4.5,-1 0.6,-0.1 1.1,0 1.6,0.4 0.5,0.4 0.8,0.8 0.9,1.4 0.1,0.6 0,1.1 -0.4,1.6 -0.4,0.5 -0.8,0.8 -1.4,0.9 -1.3,0.2 -2.5,0.5 -3.6,0.8 -1.1,0.3 -2,0.6 -2.6,0.9 -0.6,0.3 -1.2,0.5 -1.6,0.7 -0.5,0.3 -0.8,0.5 -0.9,0.7 -0.2,0.2 -0.3,0.3 -0.3,0.4 0.1,0.3 0.4,0.6 0.9,0.9 0.5,0.4 1.4,0.7 2.5,1.1 1.1,0.4 2.4,0.8 3.9,1.1 1.5,0.3 3.3,0.6 5.5,0.9 2.2,0.2 4.5,0.3 6.9,0.3 2.4,0 4.7,-0.1 6.9,-0.3 2.2,-0.2 4,-0.5 5.5,-0.9 1.5,-0.3 2.8,-0.7 3.9,-1.1 1.1,-0.4 1.9,-0.8 2.5,-1.1 0.5,-0.4 0.9,-0.7 0.9,-0.9 0,-0.1 -0.1,-0.2 -0.3,-0.4 C 67.3,68.7 67,68.5 66.6,68.3 66.1,68 65.6,67.8 64.9,67.5 64.2,67.2 63.4,67 62.3,66.6 61.2,66.2 60,66 58.7,65.8 c -0.6,-0.1 -1.1,-0.4 -1.4,-0.9 -0.4,-0.5 -0.5,-1 -0.4,-1.6 0.1,-0.6 0.4,-1.1 0.9,-1.4 0.5,-0.4 1,-0.5 1.6,-0.4 1.6,0.3 3.1,0.6 4.5,1 1.4,0.4 2.7,0.9 4,1.5 1.3,0.6 2.4,1.4 3.1,2.3 0.7,0.9 1,1.9 1,3 z M 58.9,38.7 v 13.1 c 0,0.6 -0.2,1.1 -0.6,1.5 -0.4,0.4 -1,0.7 -1.6,0.7 h -2.2 v 13.1 c 0,0.6 -0.2,1.1 -0.6,1.5 -0.4,0.4 -0.9,0.6 -1.5,0.6 h -8.7 c -0.6,0 -1.1,-0.2 -1.5,-0.6 -0.4,-0.4 -0.6,-0.9 -0.6,-1.5 V 54 H 39.4 C 38.8,54 38.3,53.8 37.9,53.4 37.5,53 37.3,52.5 37.3,51.9 V 38.7 c 0,-1.2 0.4,-2.2 1.3,-3.1 0.9,-0.9 1.9,-1.3 3.1,-1.3 h 13.1 c 1.2,0 2.2,0.4 3.1,1.3 0.6,0.9 1,1.9 1,3.1 z M 55.6,25.6 c 0,2.1 -0.7,3.9 -2.2,5.4 -1.5,1.5 -3.3,2.2 -5.4,2.2 -2.1,0 -3.9,-0.7 -5.4,-2.2 -1.5,-1.5 -2.2,-3.3 -2.2,-5.4 0,-2.1 0.7,-3.9 2.2,-5.4 1.5,-1.5 3.3,-2.2 5.4,-2.2 2.1,0 3.9,0.7 5.4,2.2 1.5,1.5 2.2,3.3 2.2,5.4 z"
   inkscape:connector-curvature="0"
   style="fill:url(#linearGradient826);fill-opacity:1" />
</g>
</svg>